<svg version="1.1" id="Layer_1" xmlns="http://www.w3.org/2000/svg" xmlns:xlink="http://www.w3.org/1999/xlink" x="0px" y="0px" width="100%" viewBox="0 0 179 226" enable-background="new 0 0 179 226" xml:space="preserve">

<path fill="#1C1C1C" opacity="1.000000" stroke="none" d="
M67.993851,193.713440 
	C67.285866,197.374619 66.572327,200.678482 65.858788,203.982361 
	C65.284218,204.016373 64.709648,204.050400 64.135086,204.084412 
	C63.045048,200.634430 61.341076,197.246689 60.983887,193.722427 
	C60.037292,184.382690 59.625088,174.986603 59.103703,165.607178 
	C58.928894,162.462509 59.834137,159.575027 63.697891,160.043762 
	C67.559784,160.512299 66.861473,163.810516 66.439041,166.352402 
	C65.896523,169.616837 64.661980,172.774963 64.231956,176.045471 
	C64.038155,177.519424 64.814491,180.302124 65.597801,180.475937 
	C67.197914,180.831009 69.703125,180.399582 70.778214,179.278320 
	C76.497124,173.313812 78.118904,165.964722 76.511406,157.998077 
	C74.408646,147.576996 73.460732,137.261292 78.292213,125.936386 
	C79.776787,132.319565 81.054871,137.814880 82.332947,143.310181 
	C82.797630,143.265015 83.262314,143.219849 83.726997,143.174698 
	C88.347656,128.098541 94.278465,113.139275 87.091461,95.636032 
	C85.832329,101.240257 84.855370,105.588593 83.878410,109.936928 
	C83.156456,109.989189 82.434509,110.041451 81.712555,110.093712 
	C79.314842,98.853401 76.917122,87.613091 74.265968,75.184715 
	C66.333687,85.175049 66.689926,95.940758 66.491898,106.554138 
	C65.780182,106.570763 65.068474,106.587395 64.356758,106.604019 
	C63.482445,102.920776 62.042591,99.268623 61.838100,95.548561 
	C61.181046,83.595520 62.249763,71.921158 69.589485,61.734989 
	C73.480309,56.335247 75.990494,56.467079 79.863831,61.502102 
	C81.752800,63.957600 84.554749,66.550659 87.392014,67.242889 
	C91.817093,68.322533 94.313057,70.870087 96.268883,74.443085 
	C98.292549,78.139992 100.820641,78.443657 103.973061,75.920143 
	C107.082497,73.431046 107.438004,70.095955 104.820312,67.321213 
	C104.256676,66.723763 103.384598,66.397934 102.882805,65.765831 
	C102.036194,64.699371 100.555756,63.205254 100.832222,62.407421 
	C101.199799,61.346630 102.905800,60.541706 104.197945,60.052879 
	C106.816994,59.062080 109.544373,58.357639 112.924141,57.321445 
	C111.671066,54.500381 110.577362,52.038128 109.470612,49.546490 
	C109.598892,49.303932 109.678444,48.917370 109.914795,48.741196 
	C115.677612,44.445946 115.655159,44.477394 110.422012,39.622887 
	C108.389305,37.737236 106.933960,37.686546 104.434891,39.472515 
	C102.333679,40.974163 98.930328,41.731510 96.369362,41.286842 
	C91.103439,40.372505 86.725960,40.550163 82.617088,44.619091 
	C80.352806,46.861370 77.006020,48.010529 73.537636,50.002647 
	C72.747345,46.309025 72.587082,43.911278 71.662338,41.857803 
	C71.109695,40.630604 69.309540,39.165039 68.161720,39.238445 
	C67.084534,39.307339 65.740715,41.108860 65.227577,42.425911 
	C64.720490,43.727409 64.651794,45.564388 65.178772,46.841251 
	C67.517761,52.508598 64.369225,55.417252 60.128479,58.079857 
	C55.566910,60.943893 51.130730,64.007629 46.124256,66.473335 
	C46.774940,61.147011 49.407455,57.079155 53.118351,53.823490 
	C56.998684,50.419174 58.501343,46.582256 57.603451,41.417370 
	C56.705956,36.254757 61.729954,30.285734 69.303665,28.587440 
	C73.974083,27.540165 77.231209,25.708902 79.516502,21.632883 
	C79.987259,20.793249 81.364563,20.461885 82.395180,19.854307 
	C84.122299,22.069281 85.657486,24.038095 87.389259,26.259031 
	C92.778481,15.496918 95.353966,13.617828 101.830467,15.366591 
	C101.326530,20.385342 94.371132,24.731136 100.110550,31.269526 
	C102.032433,28.012623 103.362686,25.194704 105.202965,22.762709 
	C108.537003,18.356646 110.905251,18.742844 113.409386,24.088535 
	C117.162659,21.795063 120.431824,22.242466 123.427216,25.748329 
	C124.513481,27.019707 126.601830,27.440908 128.241531,28.232262 
	C132.516373,30.295391 135.703964,33.147629 135.924530,38.327999 
	C136.151398,43.656155 138.454697,47.368755 143.076889,50.604366 
	C156.065048,59.696285 162.756104,72.445061 163.927032,88.435875 
	C165.259109,106.627663 161.353012,123.591652 154.847610,140.446579 
	C148.582535,156.678757 137.182632,168.695404 125.524200,180.841675 
	C120.400352,186.179947 116.510818,192.681091 111.747910,198.393311 
	C106.076355,205.195328 101.380760,204.134308 98.335449,195.669022 
	C98.172653,195.216507 97.795349,194.841125 97.350571,194.181763 
	C92.952751,195.063583 88.641983,195.779572 85.833092,200.239609 
	C84.395424,202.522400 83.128609,205.604935 78.999298,204.740341 
	C74.238953,203.743637 72.003860,200.828018 71.036415,196.460754 
	C70.626991,194.612579 70.293228,192.747665 68.864677,190.900040 
	C68.572548,191.718735 68.280418,192.537445 67.993851,193.713440 
M114.822365,128.446045 
	C115.960167,125.904518 117.097969,123.362999 118.235771,120.821480 
	C123.647049,135.519028 115.182755,147.121094 110.387527,160.128601 
	C125.963188,152.084763 133.371506,131.606903 128.596298,111.841949 
	C127.702705,114.533203 126.802368,117.244759 125.902039,119.956306 
	C125.383385,119.896233 124.864723,119.836151 124.346069,119.776077 
	C121.753174,113.928558 119.217560,108.053970 116.485260,102.272339 
	C116.188019,101.643379 114.755386,101.550980 113.568268,101.948952 
	C113.689972,108.926346 113.811676,115.903740 113.967331,123.471107 
	C113.966118,123.668083 113.964897,123.865059 113.722900,124.676071 
	C113.993385,126.133087 114.263870,127.590103 114.822365,128.446045 
M104.129730,133.361374 
	C102.450546,124.535904 100.771355,115.710426 99.092163,106.884956 
	C98.569595,106.923592 98.047035,106.962234 97.524467,107.000877 
	C97.524467,116.900284 98.525131,126.931511 97.243301,136.662064 
	C95.958961,146.411682 92.396042,155.861145 89.831833,165.442169 
	C90.246986,165.643692 90.662148,165.845230 91.077301,166.046753 
	C94.330162,160.635651 97.578262,155.221695 100.837311,149.814316 
	C103.740990,144.996582 105.608437,139.959076 104.129730,133.361374 
M140.215317,94.174545 
	C141.535233,96.370705 142.855148,98.566864 144.175049,100.763016 
	C145.846603,88.900398 138.795395,80.825989 134.281525,71.717926 
	C132.893814,79.942902 137.169266,86.505363 140.215317,94.174545 
M118.540634,74.773743 
	C120.215286,74.784653 122.533096,75.454086 123.384727,74.622322 
	C124.246071,73.781059 124.334244,70.546120 123.559433,69.966759 
	C121.969833,68.778114 119.576904,68.663795 117.514671,68.107208 
	C117.696518,70.162094 117.878357,72.216988 118.540634,74.773743 
M122.902840,36.474949 
	C124.353493,38.113041 125.804146,39.751133 127.565025,41.739529 
	C130.049530,37.423595 127.701942,34.991405 125.197083,32.854427 
	C122.562065,30.606417 119.931061,31.096582 117.020103,33.816971 
	C119.092567,34.725224 120.692589,35.426430 122.902840,36.474949 
M136.392639,60.311134 
	C136.664871,65.186302 139.106934,68.597473 143.468216,71.155647 
	C142.993973,66.113091 140.771439,62.522133 136.392639,60.311134 
M110.348961,85.999985 
	C111.151772,84.480637 113.793716,82.528259 110.396545,81.609535 
	C108.935860,81.214508 106.731560,83.110832 105.064346,84.256187 
	C104.641251,84.546852 104.980835,85.947708 104.969963,86.838432 
	C106.607391,86.717621 108.244827,86.596817 110.348961,85.999985 
M145.465927,104.498383 
	C145.465927,104.498383 145.521378,104.475586 145.465927,104.498383 
z" data-index="1" style="opacity: 1; visibility: visible;"></path>
<path fill="#1B1B1B" opacity="1.000000" stroke="none" d="
M34.758789,126.817108 
	C33.485729,132.405853 32.384834,137.664703 30.969088,142.837387 
	C30.661762,143.960251 29.225088,144.774033 28.308575,145.730164 
	C27.603275,144.517670 26.435778,143.362457 26.277172,142.082230 
	C25.748533,137.815140 25.558159,133.504715 25.281780,129.208115 
	C24.867388,122.765938 23.371325,116.139977 24.379347,109.923645 
	C25.645649,102.114548 28.975441,94.640053 32.411068,87.447075 
	C33.213390,100.450157 34.015713,113.453239 34.758789,126.817108 
z" data-index="2" style="opacity: 1;"></path>
<path fill="#191919" opacity="1.000000" stroke="none" d="
M45.033871,181.153305 
	C45.888409,179.262543 46.660465,177.742630 47.432518,176.222702 
	C47.809853,176.321701 48.187183,176.420685 48.564514,176.519684 
	C48.564514,184.434769 48.564514,192.349854 48.564514,200.264923 
	C48.068108,200.291214 47.571697,200.317505 47.075291,200.343781 
	C42.777069,194.597153 43.533482,188.109161 45.033871,181.153305 
z" data-index="3" style="opacity: 1;"></path>
<path fill="#1C1C1C" opacity="1.000000" stroke="none" d="
M90.591209,55.284603 
	C88.270912,53.625999 86.324142,52.048897 84.377365,50.471794 
	C86.667503,49.799080 88.984406,48.487343 91.242401,48.581936 
	C96.522453,48.803135 97.612923,52.766228 97.971443,58.081371 
	C95.302345,57.047031 93.133537,56.206566 90.591209,55.284603 
z" data-index="4" style="opacity: 1; visibility: visible;"></path>

<path fill="#000000" opacity="1.000000" stroke="none" d="
M104.172394,133.787262 
	C105.608437,139.959076 103.740990,144.996582 100.837311,149.814316 
	C97.578262,155.221695 94.330162,160.635651 91.077301,166.046753 
	C90.662148,165.845230 90.246986,165.643692 89.831833,165.442169 
	C92.396042,155.861145 95.958961,146.411682 97.243301,136.662064 
	C98.525131,126.931511 97.524467,116.900284 97.524467,107.000877 
	C98.047035,106.962234 98.569595,106.923592 99.092163,106.884956 
	C100.771355,115.710426 102.450546,124.535904 104.172394,133.787262 
z" data-index="6" style="opacity: 1; visibility: hidden;"></path>

<path fill="#000000" opacity="1.000000" stroke="none" d="
M118.300415,74.522812 
	C117.878357,72.216988 117.696518,70.162094 117.514679,68.107208 
	C119.576904,68.663795 121.969833,68.778114 123.559433,69.966759 
	C124.334244,70.546120 124.246071,73.781059 123.384727,74.622322 
	C122.533096,75.454086 120.215286,74.784653 118.300415,74.522812 
z" data-index="8" style="opacity: 1; visibility: hidden;"></path>

<path fill="#010101" opacity="1.000000" stroke="none" d="
M136.637299,60.236465 
	C140.771439,62.522133 142.993973,66.113091 143.468216,71.155647 
	C139.106934,68.597473 136.664871,65.186302 136.637299,60.236465 
z" data-index="10" style="opacity: 1; visibility: hidden;"></path>

<path fill="#323232" opacity="1.000000" stroke="none" d="
M113.708832,101.579330 
	C113.881477,108.127998 113.913559,115.046295 113.939514,122.422867 
	C113.811676,115.903740 113.689972,108.926346 113.708832,101.579330 
z" data-index="12"></path>
<path fill="#323232" opacity="1.000000" stroke="none" d="
M113.843292,124.369049 
	C114.066841,125.456085 114.170006,126.850136 114.403763,128.645660 
	C114.263870,127.590103 113.993385,126.133087 113.843292,124.369049 
z" data-index="13"></path>
<path fill="#000000" opacity="1.000000" stroke="none" d="
M145.493652,104.486984 
	C145.521378,104.475586 145.465927,104.498383 145.493652,104.486984 
z" data-index="14"></path>
</svg>